<mxfile host="65bd71144e">
    <diagram id="AR8xFKwiKis2gj5OD3eZ" name="Page-1">
        <mxGraphModel dx="2009" dy="1879" grid="1" gridSize="10" guides="1" tooltips="1" connect="1" arrows="1" fold="1" page="1" pageScale="1" pageWidth="850" pageHeight="1100" math="0" shadow="0">
            <root>
                <mxCell id="0"/>
                <mxCell id="1" parent="0"/>
                <mxCell id="2" value="USER LEADS" style="rounded=0;whiteSpace=wrap;html=1;fillColor=#1ba1e2;fontColor=#ffffff;strokeColor=#006EAF;" parent="1" vertex="1">
                    <mxGeometry x="50" y="130" width="210" height="30" as="geometry"/>
                </mxCell>
                <mxCell id="129" style="edgeStyle=none;html=1;exitX=1;exitY=0.5;exitDx=0;exitDy=0;entryX=0;entryY=0.5;entryDx=0;entryDy=0;" parent="1" source="3" target="122" edge="1">
                    <mxGeometry relative="1" as="geometry"/>
                </mxCell>
                <mxCell id="3" value="ID" style="rounded=0;whiteSpace=wrap;html=1;" parent="1" vertex="1">
                    <mxGeometry x="50" y="160" width="210" height="30" as="geometry"/>
                </mxCell>
                <mxCell id="130" style="edgeStyle=none;html=1;exitX=1;exitY=0.5;exitDx=0;exitDy=0;entryX=0;entryY=0.5;entryDx=0;entryDy=0;" parent="1" source="4" target="123" edge="1">
                    <mxGeometry relative="1" as="geometry"/>
                </mxCell>
                <mxCell id="4" value="NAME&lt;br&gt;" style="rounded=0;whiteSpace=wrap;html=1;" parent="1" vertex="1">
                    <mxGeometry x="50" y="190" width="210" height="30" as="geometry"/>
                </mxCell>
                <mxCell id="5" value="DATE" style="rounded=0;whiteSpace=wrap;html=1;" parent="1" vertex="1">
                    <mxGeometry x="50" y="220" width="210" height="30" as="geometry"/>
                </mxCell>
                <mxCell id="132" style="edgeStyle=none;html=1;exitX=1;exitY=0.5;exitDx=0;exitDy=0;entryX=0;entryY=0.5;entryDx=0;entryDy=0;" parent="1" source="106" target="125" edge="1">
                    <mxGeometry relative="1" as="geometry"/>
                </mxCell>
                <mxCell id="106" value="PHONE NUMBER" style="rounded=0;whiteSpace=wrap;html=1;" parent="1" vertex="1">
                    <mxGeometry x="50" y="250" width="210" height="30" as="geometry"/>
                </mxCell>
                <mxCell id="133" style="edgeStyle=none;html=1;exitX=1;exitY=0.5;exitDx=0;exitDy=0;entryX=0;entryY=0.5;entryDx=0;entryDy=0;" parent="1" source="107" target="126" edge="1">
                    <mxGeometry relative="1" as="geometry"/>
                </mxCell>
                <mxCell id="107" value="EMAIL" style="rounded=0;whiteSpace=wrap;html=1;" parent="1" vertex="1">
                    <mxGeometry x="50" y="280" width="210" height="30" as="geometry"/>
                </mxCell>
                <mxCell id="154" style="edgeStyle=none;html=1;exitX=0;exitY=0.5;exitDx=0;exitDy=0;entryX=1.001;entryY=0.614;entryDx=0;entryDy=0;entryPerimeter=0;" parent="1" source="108" target="155" edge="1">
                    <mxGeometry relative="1" as="geometry">
                        <mxPoint x="-250" y="320" as="targetPoint"/>
                    </mxGeometry>
                </mxCell>
                <mxCell id="108" value="CALL STATUS" style="rounded=0;whiteSpace=wrap;html=1;" parent="1" vertex="1">
                    <mxGeometry x="50" y="310" width="210" height="30" as="geometry"/>
                </mxCell>
                <mxCell id="160" value="" style="edgeStyle=none;html=1;fontColor=#FFFF99;exitX=0;exitY=0.5;exitDx=0;exitDy=0;" parent="1" source="109" edge="1">
                    <mxGeometry relative="1" as="geometry">
                        <mxPoint x="-200" y="480" as="targetPoint"/>
                        <Array as="points">
                            <mxPoint x="-80" y="355"/>
                            <mxPoint x="-80" y="480"/>
                        </Array>
                    </mxGeometry>
                </mxCell>
                <mxCell id="109" value="STUDENT STATUS" style="rounded=0;whiteSpace=wrap;html=1;" parent="1" vertex="1">
                    <mxGeometry x="50" y="340" width="210" height="30" as="geometry"/>
                </mxCell>
                <mxCell id="110" value="" style="rounded=0;whiteSpace=wrap;html=1;" parent="1" vertex="1">
                    <mxGeometry x="50" y="370" width="210" height="30" as="geometry"/>
                </mxCell>
                <mxCell id="111" value="BATCH" style="rounded=0;whiteSpace=wrap;html=1;fillColor=#1ba1e2;fontColor=#ffffff;strokeColor=#006EAF;" parent="1" vertex="1">
                    <mxGeometry x="470" y="-210" width="210" height="30" as="geometry"/>
                </mxCell>
                <mxCell id="112" value="ID" style="rounded=0;whiteSpace=wrap;html=1;" parent="1" vertex="1">
                    <mxGeometry x="470" y="-180" width="210" height="30" as="geometry"/>
                </mxCell>
                <mxCell id="113" value="BATCH_NAME" style="rounded=0;whiteSpace=wrap;html=1;" parent="1" vertex="1">
                    <mxGeometry x="470" y="-150" width="210" height="30" as="geometry"/>
                </mxCell>
                <mxCell id="131" style="edgeStyle=none;html=1;exitX=1;exitY=0.5;exitDx=0;exitDy=0;entryX=0;entryY=0.5;entryDx=0;entryDy=0;" parent="1" source="114" target="124" edge="1">
                    <mxGeometry relative="1" as="geometry">
                        <Array as="points">
                            <mxPoint x="740" y="-105"/>
                            <mxPoint x="740" y="235"/>
                        </Array>
                    </mxGeometry>
                </mxCell>
                <mxCell id="114" value="BATCH_CODE" style="rounded=0;whiteSpace=wrap;html=1;" parent="1" vertex="1">
                    <mxGeometry x="470" y="-120" width="210" height="30" as="geometry"/>
                </mxCell>
                <mxCell id="115" value="" style="rounded=0;whiteSpace=wrap;html=1;" parent="1" vertex="1">
                    <mxGeometry x="470" y="-90" width="210" height="30" as="geometry"/>
                </mxCell>
                <mxCell id="116" value="START DATE" style="rounded=0;whiteSpace=wrap;html=1;" parent="1" vertex="1">
                    <mxGeometry x="470" y="-60" width="210" height="30" as="geometry"/>
                </mxCell>
                <mxCell id="117" value="END DATE" style="rounded=0;whiteSpace=wrap;html=1;" parent="1" vertex="1">
                    <mxGeometry x="470" y="-30" width="210" height="30" as="geometry"/>
                </mxCell>
                <mxCell id="118" value="BATCH_STATUS" style="rounded=0;whiteSpace=wrap;html=1;" parent="1" vertex="1">
                    <mxGeometry x="470" width="210" height="30" as="geometry"/>
                </mxCell>
                <mxCell id="119" value="" style="rounded=0;whiteSpace=wrap;html=1;" parent="1" vertex="1">
                    <mxGeometry x="470" y="30" width="210" height="30" as="geometry"/>
                </mxCell>
                <mxCell id="120" value="BATCH_USERS" style="rounded=0;whiteSpace=wrap;html=1;fillColor=#1ba1e2;fontColor=#ffffff;strokeColor=#006EAF;" parent="1" vertex="1">
                    <mxGeometry x="870" y="100" width="210" height="30" as="geometry"/>
                </mxCell>
                <mxCell id="121" value="ID" style="rounded=0;whiteSpace=wrap;html=1;" parent="1" vertex="1">
                    <mxGeometry x="870" y="130" width="210" height="30" as="geometry"/>
                </mxCell>
                <mxCell id="122" value="LEAD_USER_ID" style="rounded=0;whiteSpace=wrap;html=1;" parent="1" vertex="1">
                    <mxGeometry x="870" y="160" width="210" height="30" as="geometry"/>
                </mxCell>
                <mxCell id="123" value="LEAD_USER_NAME" style="rounded=0;whiteSpace=wrap;html=1;" parent="1" vertex="1">
                    <mxGeometry x="870" y="190" width="210" height="30" as="geometry"/>
                </mxCell>
                <mxCell id="124" value="BATCH_CODE" style="rounded=0;whiteSpace=wrap;html=1;" parent="1" vertex="1">
                    <mxGeometry x="870" y="220" width="210" height="30" as="geometry"/>
                </mxCell>
                <mxCell id="125" value="PHONE NUMBER" style="rounded=0;whiteSpace=wrap;html=1;" parent="1" vertex="1">
                    <mxGeometry x="870" y="250" width="210" height="30" as="geometry"/>
                </mxCell>
                <mxCell id="126" value="EMAIL" style="rounded=0;whiteSpace=wrap;html=1;" parent="1" vertex="1">
                    <mxGeometry x="870" y="280" width="210" height="30" as="geometry"/>
                </mxCell>
                <mxCell id="127" value="" style="rounded=0;whiteSpace=wrap;html=1;" parent="1" vertex="1">
                    <mxGeometry x="870" y="310" width="210" height="30" as="geometry"/>
                </mxCell>
                <mxCell id="128" value="" style="rounded=0;whiteSpace=wrap;html=1;" parent="1" vertex="1">
                    <mxGeometry x="870" y="340" width="210" height="30" as="geometry"/>
                </mxCell>
                <mxCell id="135" value="" style="rounded=0;whiteSpace=wrap;html=1;" parent="1" vertex="1">
                    <mxGeometry x="870" y="340" width="210" height="30" as="geometry"/>
                </mxCell>
                <mxCell id="136" value="BATCH_USERS" style="rounded=0;whiteSpace=wrap;html=1;fillColor=#1ba1e2;fontColor=#ffffff;strokeColor=#006EAF;" parent="1" vertex="1">
                    <mxGeometry x="870" y="100" width="210" height="30" as="geometry"/>
                </mxCell>
                <mxCell id="137" value="ID" style="rounded=0;whiteSpace=wrap;html=1;" parent="1" vertex="1">
                    <mxGeometry x="870" y="130" width="210" height="30" as="geometry"/>
                </mxCell>
                <mxCell id="138" value="LEAD_USER_ID" style="rounded=0;whiteSpace=wrap;html=1;" parent="1" vertex="1">
                    <mxGeometry x="870" y="160" width="210" height="30" as="geometry"/>
                </mxCell>
                <mxCell id="139" value="LEAD_USER_NAME" style="rounded=0;whiteSpace=wrap;html=1;" parent="1" vertex="1">
                    <mxGeometry x="870" y="190" width="210" height="30" as="geometry"/>
                </mxCell>
                <mxCell id="140" value="USER_LOGIN" style="rounded=0;whiteSpace=wrap;html=1;fillColor=#1ba1e2;fontColor=#ffffff;strokeColor=#006EAF;" parent="1" vertex="1">
                    <mxGeometry x="180" y="-900" width="210" height="30" as="geometry"/>
                </mxCell>
                <mxCell id="141" value="ID" style="rounded=0;whiteSpace=wrap;html=1;" parent="1" vertex="1">
                    <mxGeometry x="180" y="-870" width="210" height="30" as="geometry"/>
                </mxCell>
                <mxCell id="142" value="USER_NAME&lt;span style=&quot;white-space: pre;&quot;&gt;&#9;&lt;/span&gt;" style="rounded=0;whiteSpace=wrap;html=1;" parent="1" vertex="1">
                    <mxGeometry x="180" y="-840" width="210" height="30" as="geometry"/>
                </mxCell>
                <mxCell id="143" value="USER_EMAIL" style="rounded=0;whiteSpace=wrap;html=1;" parent="1" vertex="1">
                    <mxGeometry x="180" y="-810" width="210" height="30" as="geometry"/>
                </mxCell>
                <mxCell id="153" style="edgeStyle=none;html=1;entryX=0.394;entryY=-0.019;entryDx=0;entryDy=0;entryPerimeter=0;" parent="1" source="144" target="152" edge="1">
                    <mxGeometry relative="1" as="geometry">
                        <Array as="points">
                            <mxPoint x="-77" y="-760"/>
                        </Array>
                    </mxGeometry>
                </mxCell>
                <mxCell id="144" value="USER_TYPE" style="rounded=0;whiteSpace=wrap;html=1;" parent="1" vertex="1">
                    <mxGeometry x="180" y="-780" width="210" height="30" as="geometry"/>
                </mxCell>
                <mxCell id="145" value="GOOGLE_TOKEN" style="rounded=0;whiteSpace=wrap;html=1;" parent="1" vertex="1">
                    <mxGeometry x="180" y="-750" width="210" height="30" as="geometry"/>
                </mxCell>
                <mxCell id="146" value="IMAGE" style="rounded=0;whiteSpace=wrap;html=1;" parent="1" vertex="1">
                    <mxGeometry x="180" y="-720" width="210" height="30" as="geometry"/>
                </mxCell>
                <mxCell id="147" value="" style="rounded=0;whiteSpace=wrap;html=1;" parent="1" vertex="1">
                    <mxGeometry x="180" y="-690" width="210" height="30" as="geometry"/>
                </mxCell>
                <mxCell id="148" value="" style="rounded=0;whiteSpace=wrap;html=1;" parent="1" vertex="1">
                    <mxGeometry x="180" y="-660" width="210" height="30" as="geometry"/>
                </mxCell>
                <mxCell id="163" style="edgeStyle=none;html=1;fontColor=#FFFF99;" parent="1" source="152" edge="1">
                    <mxGeometry relative="1" as="geometry">
                        <mxPoint x="-160" y="-655" as="targetPoint"/>
                    </mxGeometry>
                </mxCell>
                <mxCell id="152" value="&lt;ul&gt;&lt;li style=&quot;&quot;&gt;USER&lt;/li&gt;&lt;li style=&quot;&quot;&gt;ADMIN&lt;/li&gt;&lt;li style=&quot;&quot;&gt;STUDENT&lt;/li&gt;&lt;li style=&quot;&quot;&gt;TUTORE&lt;/li&gt;&lt;li style=&quot;&quot;&gt;MARKETING&lt;/li&gt;&lt;/ul&gt;&lt;span style=&quot;background-color: initial;&quot;&gt;( DEFAULT OPTION WILL BE USER )&lt;/span&gt;" style="whiteSpace=wrap;html=1;aspect=fixed;align=left;fillColor=default;" parent="1" vertex="1">
                    <mxGeometry x="-160" y="-730" width="210" height="210" as="geometry"/>
                </mxCell>
                <mxCell id="155" value="&lt;ul style=&quot;text-align: left;&quot;&gt;&lt;li&gt;TRUE -IF CALLED THE LEAD&lt;/li&gt;&lt;li&gt;FALSE - IF NOT CALLED THE LEAD&lt;/li&gt;&lt;/ul&gt;( DEFAULT OPTION WILL&amp;nbsp; BE &lt;font color=&quot;#ffff99&quot;&gt;FALSE&amp;nbsp;&lt;/font&gt;)" style="shape=ext;double=1;rounded=0;whiteSpace=wrap;html=1;" parent="1" vertex="1">
                    <mxGeometry x="-430" y="260" width="240" height="110" as="geometry"/>
                </mxCell>
                <mxCell id="159" value="&lt;ul style=&quot;&quot;&gt;&lt;li&gt;INTRESTED&lt;/li&gt;&lt;li&gt;HOLD&lt;/li&gt;&lt;li&gt;NOT INTRESTED&lt;/li&gt;&lt;/ul&gt;( DEFAULT OPTION WILL BE INTRESTED )" style="whiteSpace=wrap;html=1;rounded=0;align=left;" parent="1" vertex="1">
                    <mxGeometry x="-450" y="460" width="250" height="120" as="geometry"/>
                </mxCell>
            </root>
        </mxGraphModel>
    </diagram>
</mxfile>